# xmcd
# 
# Track frame offsets:
#     150
#     17667
#     34275
#     51824
#     68096
#     85781
#     103896
#     120463
#     135010
#     151332
#     169048
#     184086
#     203578
# 
# Disc length: 2902
# 
# Revision: 1
# Processed by: cddbd v1.5.2PL0 Copyright (c) Steve Scherf et al.
# Submitted via: fre:ac v1.0.17
# 
DISCID=9e0b540d
DTITLE=Gamebois  - Loops
DYEAR=10
DGENRE=Funk
TTITLE0=Left
TTITLE1=Soulfood
TTITLE2=All On You
TTITLE3=Life Is
TTITLE4=Every Day
TTITLE5=Another You
TTITLE6=On My Own
TTITLE7=Blood
TTITLE8=Nobody's Fool
TTITLE9=Born To Die
TTITLE10=I Am Blind
TTITLE11=Ain't No Love
TTITLE12=Letter
EXTD=
EXTT0=
EXTT1=
EXTT2=
EXTT3=
EXTT4=
EXTT5=
EXTT6=
EXTT7=
EXTT8=
EXTT9=
EXTT10=
EXTT11=
EXTT12=
PLAYORDER=
